:SAMPLES-PER-SECOND 30
:FRAME-RANGE 1-668
:FULLY-SPECIFIED
:DEGREES
606
root  -33.3556 39.5712 43.4339 -170.483 -7.2912 -176.774
RightUpLeg  -7.87733 -3.03436 -1.49517
RightLeg  22.8233 -3.58376 -1.86685
RightFoot  -13.293 0.0601421 8.82194
RightToes  5.38607e-012 1.2921e-014 -6.02303e-014
Spine  -4.51699 -1.15419 -4.10827
Spine1  5.26668 -0.409935 -3.25023
HEad  5.96757 -5.45846 2.88233
LeftShoulder1  0.778403 0.490884 -21.5318
LeftArm  12.1399 4.51341 -41.9956
LeftForeArm  19.5725 -19.1484 -5.77006
LeftHand  -0.0462546 4.64415 3.83636
RightShoulder  1.73921 2.16911 25.7249
RightArm  -18.3727 2.97788 57.8656
RightForeArm  76.8764 -2.35006 7.16907
RightHand  -0.0235776 -5.3368 -11.4883
LeftUpLeg  -16.0074 5.19345 5.13501
LeftLeg  13.8604 7.88217 3.06498
LeftFoot  -6.15633 0.284106 -5.45741
LeftToes  -6.11857e-011 5.00151e-011 -2.22593e-011
607
root  -33.3158 39.6142 43.9446 -169.998 -4.59666 -177.121
RightUpLeg  -6.4039 -3.52803 -1.85287
RightLeg  23.1789 -3.82284 -2.0063
RightFoot  -13.3403 0.0584442 8.53437
RightToes  5.38607e-012 1.2921e-014 -6.02303e-014
Spine  -4.82198 -0.882375 -3.70503
Spine1  5.20469 -0.041877 -3.81456
HEad  4.06062 -4.23936 2.87726
LeftShoulder1  0.687594 0.829346 -21.6508
LeftArm  11.6147 4.57509 -40.605
LeftForeArm  20.7538 -18.2453 -6.3289
LeftHand  -0.0370487 4.94259 3.5525
RightShoulder  1.75011 2.24788 25.4605
RightArm  -18.0209 3.35831 57.7772
RightForeArm  76.2362 -2.65603 7.30533
RightHand  -0.0187146 -5.38232 -12.0659
LeftUpLeg  -16.1453 5.62445 4.73459
LeftLeg  12.5751 10.1154 3.09218
LeftFoot  -4.95245 0.322107 -5.23751
LeftToes  -6.11857e-011 5.00151e-011 -2.22593e-011
608
root  -33.2115 39.6463 44.4972 -169.285 -1.4796 -177.414
RightUpLeg  -5.59029 -4.23398 -2.71603
RightLeg  23.267 -3.68173 -1.94703
RightFoot  -13.1361 0.0497221 8.86108
RightToes  5.38607e-012 1.2921e-014 -6.02303e-014
Spine  -5.2416 -0.496234 -3.37824
Spine1  5.31863 0.468949 -4.40325
HEad  1.76758 -3.01131 2.89908
LeftShoulder1  0.656301 0.950821 -21.7608
LeftArm  11.51 5.03458 -39.5596
LeftForeArm  21.0087 -18.0214 -6.48054
LeftHand  -0.0318448 5.13571 3.33787
RightShoulder  1.7973 2.43957 25.2251
RightArm  -17.9677 4.21496 57.7355
RightForeArm  76.2625 -3.2243 7.20021
RightHand  -0.0173802 -5.38988 -12.664
LeftUpLeg  -16.5307 5.87223 4.53921
LeftLeg  11.2732 12.9464 3.17165
LeftFoot  -3.63424 0.374689 -5.23742
LeftToes  -6.11857e-011 5.00151e-011 -2.22593e-011
609
root  -33.0473 39.67 45.0819 -168.517 1.64494 -177.335
RightUpLeg  -5.11942 -5.17 -3.56322
RightLeg  22.8702 -3.82402 -1.98064
RightFoot  -12.791 0.0222982 8.6228
RightToes  5.38607e-012 1.2921e-014 -6.02303e-014
Spine  -5.48708 -0.160715 -2.84525
Spine1  5.4072 0.880576 -4.8068
HEad  -0.508236 -1.69144 2.87998
LeftShoulder1  0.614118 1.11231 -21.8976
LeftArm  11.5107 5.41811 -38.9856
LeftForeArm  21.3122 -17.8641 -6.58604
LeftHand  -0.0286812 5.26864 3.50354
RightShoulder  1.85504 2.70102 24.8119
RightArm  -18.1689 5.04941 57.9026
RightForeArm  76.4881 -3.40862 6.97176
RightHand  -0.00577427 -5.48925 -13.2506
LeftUpLeg  -17.0794 6.14418 4.7819
LeftLeg  10.0578 15.8275 3.3787
LeftFoot  -2.30003 0.441802 -5.4118
LeftToes  -6.11857e-011 5.00151e-011 -2.22593e-011
